<?xml version="1.0" encoding="iso-8859-1"?>
<!-- Generator: Adobe Illustrator 19.0.0, SVG Export Plug-In . SVG Version: 6.00 Build 0)  -->
<svg version="1.1" id="Capa_1" xmlns="http://www.w3.org/2000/svg" xmlns:xlink="http://www.w3.org/1999/xlink" x="0px" y="0px"
	 viewBox="0 0 512 512" style="enable-background:new 0 0 512 512;" fill="#BBD406" xml:space="preserve">
<g>
	<g>
		<g>
			<path d="M384,320H80c-44.161,0.053-79.947,35.839-80,80v112h32V400c0-26.51,21.49-48,48-48h272v32H192v128h32v-96h160V320z"/>
			<rect x="64" y="416" width="32" height="96"/>
			<path d="M144,288c44.183,0,80-35.817,80-80s-35.817-80-80-80s-80,35.817-80,80C64.053,252.161,99.839,287.947,144,288z M144,160
				c26.51,0,48,21.49,48,48c0,26.51-21.49,48-48,48c-26.51,0-48-21.49-48-48C96,181.49,117.49,160,144,160z"/>
			<path d="M0,0v96h448v32h32V96h32V0H0z M480,64H32V32h448V64z"/>
			<rect x="448" y="160" width="32" height="32"/>
			<rect x="448" y="224" width="32" height="32"/>
			<polygon points="448,448 256,448 256,480 480,480 480,288 448,288 			"/>
			<rect x="256" y="160" width="160" height="32"/>
			<rect x="320" y="224" width="96" height="32"/>
			<rect x="256" y="224" width="32" height="32"/>
		</g>
	</g>
</g>
<g>
</g>
<g>
</g>
<g>
</g>
<g>
</g>
<g>
</g>
<g>
</g>
<g>
</g>
<g>
</g>
<g>
</g>
<g>
</g>
<g>
</g>
<g>
</g>
<g>
</g>
<g>
</g>
<g>
</g>
</svg>
